<?xml version="1.0" encoding="UTF-8" standalone="no"?>
<!-- Created with Inkscape (http://www.inkscape.org/) -->

<svg
   xmlns:dc="http://purl.org/dc/elements/1.1/"
   xmlns:cc="http://creativecommons.org/ns#"
   xmlns:rdf="http://www.w3.org/1999/02/22-rdf-syntax-ns#"
   xmlns:svg="http://www.w3.org/2000/svg"
   xmlns="http://www.w3.org/2000/svg"
   xmlns:sodipodi="http://sodipodi.sourceforge.net/DTD/sodipodi-0.dtd"
   xmlns:inkscape="http://www.inkscape.org/namespaces/inkscape"
   width="5.2916665mm"
   height="5.2916665mm"
   viewBox="0 0 5.2916664 5.2916665"
   version="1.1"
   id="svg6476"
   inkscape:version="0.92.3 (2405546, 2018-03-11)"
   sodipodi:docname="stepList.svg">
  <defs
     id="defs6470" />
  <sodipodi:namedview
     id="base"
     pagecolor="#ffffff"
     bordercolor="#666666"
     borderopacity="1.0"
     inkscape:pageopacity="0.0"
     inkscape:pageshadow="2"
     inkscape:zoom="11.2"
     inkscape:cx="-15.401787"
     inkscape:cy="19.382572"
     inkscape:document-units="mm"
     inkscape:current-layer="g8375"
     showgrid="false"
     fit-margin-top="0"
     fit-margin-left="0"
     fit-margin-right="0"
     fit-margin-bottom="0"
     inkscape:window-width="1920"
     inkscape:window-height="1017"
     inkscape:window-x="1912"
     inkscape:window-y="-8"
     inkscape:window-maximized="1" />
  <metadata
     id="metadata6473">
    <rdf:RDF>
      <cc:Work
         rdf:about="">
        <dc:format>image/svg+xml</dc:format>
        <dc:type
           rdf:resource="http://purl.org/dc/dcmitype/StillImage" />
        <dc:title></dc:title>
      </cc:Work>
    </rdf:RDF>
  </metadata>
  <g
     inkscape:label="Calque 1"
     inkscape:groupmode="layer"
     id="layer1"
     transform="translate(-149.2061,-108.67888)">
    <g
       transform="matrix(0.26458333,0,0,0.26458333,-108.57453,82.317305)"
       id="g8375">
      <g
         transform="translate(-139.711,82.272128)"
         id="g10746"
         inkscape:export-xdpi="315"
         inkscape:export-ydpi="315">
        <rect
           y="17.362181"
           x="1114"
           height="20"
           width="20"
           id="rect10744"
           style="color:#000000;display:inline;overflow:visible;visibility:visible;fill:#000000;fill-opacity:0;fill-rule:nonzero;stroke:none;stroke-width:1;marker:none;enable-background:accumulate" />
        <g
           transform="translate(2)"
           inkscape:export-ydpi="315"
           inkscape:export-xdpi="315"
           id="g10698">
          <path
             sodipodi:nodetypes="sssssssss"
             id="path10638"
             d="m 1115.3902,24.36218 h 13.2196 c 1.3241,0 2.3902,1.0704 2.3902,2.399999 v 1.200001 c 0,1.329599 -1.0661,2.399999 -2.3902,2.399999 h -13.2196 c -1.3241,0 -2.3902,-1.0704 -2.3902,-2.399999 v -1.200001 c 0,-1.329599 1.0661,-2.399999 2.3902,-2.399999 z"
             style="color:#000000;display:inline;overflow:visible;visibility:visible;fill:#8e8e8e;fill-opacity:1;fill-rule:nonzero;stroke:none;stroke-width:1;marker:none;enable-background:accumulate"
             inkscape:connector-curvature="0" />
          <path
             inkscape:connector-curvature="0"
             style="color:#000000;display:inline;overflow:visible;visibility:visible;fill:#8e8e8e;fill-opacity:1;fill-rule:nonzero;stroke:none;stroke-width:1;marker:none;enable-background:accumulate"
             d="m 1115.3902,31.362181 h 13.2196 c 1.3241,0 2.3902,1.0704 2.3902,2.399999 v 1.200001 c 0,1.329599 -1.0661,2.399999 -2.3902,2.399999 h -13.2196 c -1.3241,0 -2.3902,-1.0704 -2.3902,-2.399999 V 33.76218 c 0,-1.329599 1.0661,-2.399999 2.3902,-2.399999 z"
             id="path10640"
             sodipodi:nodetypes="sssssssss" />
          <rect
             ry="0"
             y="17.362181"
             x="1120.0632"
             height="20"
             width="3.9368181"
             id="rect10612"
             style="color:#000000;display:inline;overflow:visible;visibility:visible;fill:#8e8e8e;fill-opacity:1;fill-rule:nonzero;stroke:none;stroke-width:1;marker:none;enable-background:accumulate" />
          <path
             inkscape:connector-curvature="0"
             style="color:#000000;display:inline;overflow:visible;visibility:visible;fill:#8e8e8e;fill-opacity:1;fill-rule:nonzero;stroke:none;stroke-width:1;marker:none;enable-background:accumulate"
             d="m 1115.3902,17.362181 h 13.2196 c 1.3241,0 2.3902,1.0704 2.3902,2.399999 v 1.200001 c 0,1.329599 -1.0661,2.399999 -2.3902,2.399999 h -13.2196 c -1.3241,0 -2.3902,-1.0704 -2.3902,-2.399999 V 19.76218 c 0,-1.329599 1.0661,-2.399999 2.3902,-2.399999 z"
             id="path10614"
             sodipodi:nodetypes="sssssssss" />
          <path
             id="path10676"
             d="m 1115.6036,18.36218 h 12.7928 c 0.8884,0 1.6036,0.7136 1.6036,1.599999 v 0.8 c 0,0.8864 -0.7152,1.6 -1.6036,1.6 h -12.7928 c -0.8884,0 -1.6036,-0.7136 -1.6036,-1.6 v -0.8 c 0,-0.886399 0.7152,-1.599999 1.6036,-1.599999 z"
             style="color:#000000;display:inline;overflow:visible;visibility:visible;fill:#ffffff;fill-opacity:0.30674851;fill-rule:nonzero;stroke:none;stroke-width:1;marker:none;enable-background:accumulate"
             inkscape:connector-curvature="0"
             sodipodi:nodetypes="sssssssss" />
          <path
             inkscape:connector-curvature="0"
             style="color:#000000;display:inline;overflow:visible;visibility:visible;fill:#ffffff;fill-opacity:0.88957053;fill-rule:nonzero;stroke:none;stroke-width:1;marker:none;enable-background:accumulate"
             d="m 1115.6107,18.362181 h 0.7786 c 0.8923,0 1.6107,0.7136 1.6107,1.599999 v 0.8 c 0,0.8864 -0.7184,1.6 -1.6107,1.6 h -0.7786 c -0.8923,0 -1.6107,-0.7136 -1.6107,-1.6 v -0.8 c 0,-0.886399 0.7184,-1.599999 1.6107,-1.599999 z"
             id="path10616"
             sodipodi:nodetypes="sssssssss" />
          <path
             sodipodi:nodetypes="sssssssss"
             inkscape:connector-curvature="0"
             style="color:#000000;display:inline;overflow:visible;visibility:visible;fill:#ffffff;fill-opacity:0.30674851;fill-rule:nonzero;stroke:none;stroke-width:1;marker:none;enable-background:accumulate"
             d="m 1115.6036,25.362181 h 12.7928 c 0.8884,0 1.6036,0.7136 1.6036,1.599999 v 0.8 c 0,0.8864 -0.7152,1.6 -1.6036,1.6 h -12.7928 c -0.8884,0 -1.6036,-0.7136 -1.6036,-1.6 v -0.8 c 0,-0.886399 0.7152,-1.599999 1.6036,-1.599999 z"
             id="path10674" />
          <path
             inkscape:connector-curvature="0"
             style="color:#000000;display:inline;overflow:visible;visibility:visible;fill:#ffffff;fill-opacity:0.88957053;fill-rule:nonzero;stroke:none;stroke-width:1;marker:none;enable-background:accumulate"
             d="m 1115.6095,25.362181 h 4.781 c 0.8917,0 1.6095,0.7136 1.6095,1.599999 v 0.8 c 0,0.8864 -0.7178,1.6 -1.6095,1.6 h -4.781 c -0.8917,0 -1.6095,-0.7136 -1.6095,-1.6 v -0.8 c 0,-0.886399 0.7178,-1.599999 1.6095,-1.599999 z"
             id="path10622"
             sodipodi:nodetypes="sssssssss" />
          <path
             id="path10630"
             d="m 1115.6036,32.362181 h 12.7928 c 0.8884,0 1.6036,0.7136 1.6036,1.599999 v 0.8 c 0,0.8864 -0.7152,1.6 -1.6036,1.6 h -12.7928 c -0.8884,0 -1.6036,-0.7136 -1.6036,-1.6 v -0.8 c 0,-0.886399 0.7152,-1.599999 1.6036,-1.599999 z"
             style="color:#000000;display:inline;overflow:visible;visibility:visible;fill:#ffffff;fill-opacity:0.88957053;fill-rule:nonzero;stroke:none;stroke-width:1;marker:none;enable-background:accumulate"
             inkscape:connector-curvature="0"
             sodipodi:nodetypes="sssssssss" />
        </g>
      </g>
    </g>
  </g>
</svg>
